RBDS014runT35_grf
version=1
nRows=34
nColumns=19
inDegrees=no
endheader
time	ground_force_r_vx	ground_force_r_vy	ground_force_r_vz	ground_force_r_px	ground_force_r_py	ground_force_r_pz	ground_force_r_mx	ground_force_r_my	ground_force_r_mz	ground_force_l_vx	ground_force_l_vy	ground_force_l_vz	ground_force_l_px	ground_force_l_py	ground_force_l_pz	ground_force_l_mx	ground_force_l_my	ground_force_l_mz
     14.99900000	     57.16652558	   1665.16834474	    -70.85721784	      1.96124091	      0.00000000	      1.08465678	      0.00000000	     -2.38695927	      0.00000000	      0.00000000	      0.00000000	      0.00000000	      0.00000000	      0.00000000	      0.00000000	      0.00000000	      0.00000000	      0.00000000
     15.00000000	     61.46691257	   1658.45837745	    -70.42744811	      1.95846347	      0.00000000	      1.08465602	      0.00000000	     -2.45234213	      0.00000000	      0.00000000	      0.00000000	      0.00000000	      0.00000000	      0.00000000	      0.00000000	      0.00000000	      0.00000000	      0.00000000
     15.00100000	     65.62987541	   1650.79637213	    -69.86771169	      1.95568563	      0.00000000	      1.08464000	      0.00000000	     -2.49172877	      0.00000000	      0.00000000	      0.00000000	      0.00000000	      0.00000000	      0.00000000	      0.00000000	      0.00000000	      0.00000000	      0.00000000
     15.00200000	     69.79283826	   1643.13436682	    -69.30797527	      1.95290780	      0.00000000	      1.08462398	      0.00000000	     -2.53111541	      0.00000000	      0.00000000	      0.00000000	      0.00000000	      0.00000000	      0.00000000	      0.00000000	      0.00000000	      0.00000000	      0.00000000
     15.00300000	     73.95580110	   1635.47236150	    -68.74823885	      1.95012997	      0.00000000	      1.08460795	      0.00000000	     -2.57050205	      0.00000000	      0.00000000	      0.00000000	      0.00000000	      0.00000000	      0.00000000	      0.00000000	      0.00000000	      0.00000000	      0.00000000
     15.00400000	     78.02803762	   1627.20746968	    -68.10436806	      1.94734847	      0.00000000	      1.08458172	      0.00000000	     -2.59334788	      0.00000000	      0.00000000	      0.00000000	      0.00000000	      0.00000000	      0.00000000	      0.00000000	      0.00000000	      0.00000000	      0.00000000
     15.00500000	     82.05491097	   1618.64113461	    -67.41843008	      1.94456513	      0.00000000	      1.08455038	      0.00000000	     -2.60792329	      0.00000000	      0.00000000	      0.00000000	      0.00000000	      0.00000000	      0.00000000	      0.00000000	      0.00000000	      0.00000000	      0.00000000
     15.00600000	     86.08178431	   1610.07479955	    -66.73249210	      1.94178180	      0.00000000	      1.08451904	      0.00000000	     -2.62249870	      0.00000000	      0.00000000	      0.00000000	      0.00000000	      0.00000000	      0.00000000	      0.00000000	      0.00000000	      0.00000000	      0.00000000
     15.00700000	     90.06314637	   1601.22266639	    -66.00654630	      1.93899511	      0.00000000	      1.08448260	      0.00000000	     -2.62941783	      0.00000000	      0.00000000	      0.00000000	      0.00000000	      0.00000000	      0.00000000	      0.00000000	      0.00000000	      0.00000000	      0.00000000
     15.00800000	     93.95348585	   1591.79893707	    -65.20058483	      1.93620172	      0.00000000	      1.08443599	      0.00000000	     -2.62102440	      0.00000000	      0.00000000	      0.00000000	      0.00000000	      0.00000000	      0.00000000	      0.00000000	      0.00000000	      0.00000000	      0.00000000
     15.00900000	     97.84382533	   1582.37520775	    -64.39462337	      1.93340832	      0.00000000	      1.08438937	      0.00000000	     -2.61263096	      0.00000000	      0.00000000	      0.00000000	      0.00000000	      0.00000000	      0.00000000	      0.00000000	      0.00000000	      0.00000000	      0.00000000
     15.01000000	    101.73416482	   1572.95147843	    -63.58866190	      1.93061493	      0.00000000	      1.08434276	      0.00000000	     -2.60423753	      0.00000000	      0.00000000	      0.00000000	      0.00000000	      0.00000000	      0.00000000	      0.00000000	      0.00000000	      0.00000000	      0.00000000
     15.01100000	    105.48464984	   1562.71565770	    -62.67129361	      1.92780762	      0.00000000	      1.08428105	      0.00000000	     -2.57524184	      0.00000000	      0.00000000	      0.00000000	      0.00000000	      0.00000000	      0.00000000	      0.00000000	      0.00000000	      0.00000000	      0.00000000
     15.01200000	    109.23513486	   1552.47983697	    -61.75392532	      1.92500031	      0.00000000	      1.08421935	      0.00000000	     -2.54624616	      0.00000000	      0.00000000	      0.00000000	      0.00000000	      0.00000000	      0.00000000	      0.00000000	      0.00000000	      0.00000000	      0.00000000
     15.01300000	    112.98561989	   1542.24401624	    -60.83655703	      1.92219300	      0.00000000	      1.08415764	      0.00000000	     -2.51725047	      0.00000000	      0.00000000	      0.00000000	      0.00000000	      0.00000000	      0.00000000	      0.00000000	      0.00000000	      0.00000000	      0.00000000
     15.01400000	    116.63821790	   1531.49566558	    -59.85223205	      1.91937441	      0.00000000	      1.08408610	      0.00000000	     -2.47634967	      0.00000000	      0.00000000	      0.00000000	      0.00000000	      0.00000000	      0.00000000	      0.00000000	      0.00000000	      0.00000000	      0.00000000
     15.01500000	    120.24187241	   1520.49104996	    -58.83442874	      1.91655017	      0.00000000	      1.08400965	      0.00000000	     -2.42949630	      0.00000000	      0.00000000	      0.00000000	      0.00000000	      0.00000000	      0.00000000	      0.00000000	      0.00000000	      0.00000000	      0.00000000
     15.01600000	    123.84552692	   1509.48643433	    -57.81662542	      1.91372593	      0.00000000	      1.08393319	      0.00000000	     -2.38264294	      0.00000000	      0.00000000	      0.00000000	      0.00000000	      0.00000000	      0.00000000	      0.00000000	      0.00000000	      0.00000000	      0.00000000
     15.01700000	    127.39654735	   1498.23934136	    -56.76972642	      1.91089533	      0.00000000	      1.08385200	      0.00000000	     -2.33082899	      0.00000000	      0.00000000	      0.00000000	      0.00000000	      0.00000000	      0.00000000	      0.00000000	      0.00000000	      0.00000000	      0.00000000
     15.01800000	    130.84229963	   1486.50729369	    -55.66463604	      1.90805201	      0.00000000	      1.08376132	      0.00000000	     -2.26909390	      0.00000000	      0.00000000	      0.00000000	      0.00000000	      0.00000000	      0.00000000	      0.00000000	      0.00000000	      0.00000000	      0.00000000
     15.01900000	    134.28805191	   1474.77524602	    -54.55954566	      1.90520869	      0.00000000	      1.08367064	      0.00000000	     -2.20735881	      0.00000000	      0.00000000	      0.00000000	      0.00000000	      0.00000000	      0.00000000	      0.00000000	      0.00000000	      0.00000000	      0.00000000
     15.02000000	    137.73380419	   1463.04319835	    -53.45445528	      1.90236537	      0.00000000	      1.08357996	      0.00000000	     -2.14562372	      0.00000000	      0.00000000	      0.00000000	      0.00000000	      0.00000000	      0.00000000	      0.00000000	      0.00000000	      0.00000000	      0.00000000
     15.02100000	    141.00638597	   1450.62360358	    -52.27714452	      1.89950171	      0.00000000	      1.08347578	      0.00000000	     -2.07207826	      0.00000000	      0.00000000	      0.00000000	      0.00000000	      0.00000000	      0.00000000	      0.00000000	      0.00000000	      0.00000000	      0.00000000
     15.02200000	    144.27896776	   1438.20400881	    -51.09983376	      1.89663804	      0.00000000	      1.08337160	      0.00000000	     -1.99853280	      0.00000000	      0.00000000	      0.00000000	      0.00000000	      0.00000000	      0.00000000	      0.00000000	      0.00000000	      0.00000000	      0.00000000
     15.02300000	    147.55154954	   1425.78441405	    -49.92252300	      1.89377438	      0.00000000	      1.08326742	      0.00000000	     -1.92498734	      0.00000000	      0.00000000	      0.00000000	      0.00000000	      0.00000000	      0.00000000	      0.00000000	      0.00000000	      0.00000000	      0.00000000
     15.02400000	    150.69585503	   1412.93256426	    -48.70817703	      1.89089685	      0.00000000	      1.08315487	     -0.00000000	     -1.84560113	      0.00000000	      0.00000000	      0.00000000	      0.00000000	      0.00000000	      0.00000000	      0.00000000	      0.00000000	      0.00000000	      0.00000000
     15.02500000	    153.77602237	   1399.86458696	    -47.47531347	      1.88801239	      0.00000000	      1.08303813	     -0.00000000	     -1.76329455	      0.00000000	      0.00000000	      0.00000000	      0.00000000	      0.00000000	      0.00000000	      0.00000000	      0.00000000	      0.00000000	      0.00000000
     15.02600000	    156.85618971	   1386.79660967	    -46.24244991	      1.88512794	      0.00000000	      1.08292139	     -0.00000000	     -1.68098797	      0.00000000	      0.00000000	      0.00000000	      0.00000000	      0.00000000	      0.00000000	      0.00000000	      0.00000000	      0.00000000	      0.00000000
     15.02700000	    159.86464940	   1373.52564175	    -44.99703779	      1.88223665	      0.00000000	      1.08280085	     -0.00000000	     -1.59673864	      0.00000000	      0.00000000	      0.00000000	      0.00000000	      0.00000000	      0.00000000	      0.00000000	      0.00000000	      0.00000000	      0.00000000
     15.02800000	    162.72969378	   1359.84869258	    -43.72652855	      1.87933169	      0.00000000	      1.08267271	     -0.00000000	     -1.50860382	      0.00000000	      0.00000000	      0.00000000	      0.00000000	      0.00000000	      0.00000000	      0.00000000	      0.00000000	      0.00000000	      0.00000000
     15.02900000	    165.59473816	   1346.17174341	    -42.45601932	      1.87642674	      0.00000000	      1.08254457	     -0.00000000	     -1.42046900	      0.00000000	      0.00000000	      0.00000000	      0.00000000	      0.00000000	      0.00000000	      0.00000000	      0.00000000	      0.00000000	      0.00000000
     15.03000000	    168.45978254	   1332.49479424	    -41.18551008	      1.87352178	      0.00000000	      1.08241643	     -0.00000000	     -1.33233418	      0.00000000	      0.00000000	      0.00000000	      0.00000000	      0.00000000	      0.00000000	      0.00000000	      0.00000000	      0.00000000	      0.00000000
     15.03100000	    171.08429047	   1318.24960884	    -39.89611082	      1.87059728	      0.00000000	      1.08227825	     -0.00000000	     -1.24111898	      0.00000000	      0.00000000	      0.00000000	      0.00000000	      0.00000000	      0.00000000	      0.00000000	      0.00000000	      0.00000000	      0.00000000
     15.03200000	    173.70879840	   1304.00442344	    -38.60671155	      1.86767278	      0.00000000	      1.08214008	     -0.00000000	     -1.14990378	      0.00000000	      0.00000000	      0.00000000	      0.00000000	      0.00000000	      0.00000000	      0.00000000	      0.00000000	      0.00000000	      0.00000000
